<mxfile host="app.diagrams.net" agent="Mozilla/5.0 (Macintosh; Intel Mac OS X 10_15_7) AppleWebKit/605.1.15 (KHTML, like Gecko) Version/18.4 Safari/605.1.15" version="27.0.8">
  <diagram name="Seite-1" id="bKi48Nllbkm4q8D3LhVU">
    <mxGraphModel dx="976" dy="604" grid="1" gridSize="10" guides="1" tooltips="1" connect="1" arrows="1" fold="1" page="1" pageScale="1" pageWidth="827" pageHeight="1169" math="0" shadow="0">
      <root>
        <mxCell id="0" />
        <mxCell id="1" parent="0" />
        <mxCell id="O0rZPtdsScXkaoj67VYM-2" value="" style="strokeColor=#666666;html=1;verticalLabelPosition=bottom;labelBackgroundColor=#ffffff;verticalAlign=top;outlineConnect=0;shadow=0;dashed=0;shape=mxgraph.rackGeneral.rackCabinet3;fillColor2=#f4f4f4;container=1;collapsible=0;childLayout=rack;allowGaps=1;marginLeft=33;marginRight=9;marginTop=21;marginBottom=22;textColor=#666666;numDisp=ascend;" vertex="1" parent="1">
          <mxGeometry x="300" y="120" width="204" height="520" as="geometry" />
        </mxCell>
        <mxCell id="O0rZPtdsScXkaoj67VYM-3" value="" style="strokeColor=#666666;html=1;labelPosition=right;align=left;spacingLeft=15;shadow=0;dashed=0;outlineConnect=0;shape=mxgraph.rack.general.1u_rack_server;" vertex="1" parent="O0rZPtdsScXkaoj67VYM-2">
          <mxGeometry x="33" y="180" width="162" height="80" as="geometry" />
        </mxCell>
        <mxCell id="O0rZPtdsScXkaoj67VYM-4" value="" style="strokeColor=#666666;html=1;labelPosition=right;align=left;spacingLeft=15;shadow=0;dashed=0;outlineConnect=0;shape=mxgraph.rack.general.1u_rack_server;" vertex="1" parent="O0rZPtdsScXkaoj67VYM-2">
          <mxGeometry x="33" y="260" width="162" height="80" as="geometry" />
        </mxCell>
      </root>
    </mxGraphModel>
  </diagram>
</mxfile>
